<svg width="54" height="54" viewBox="0 0 54 54" fill="none" xmlns="http://www.w3.org/2000/svg">
<g clip-path="url(#clip0_229_137)">
<path d="M52.9205 39.3453L34.002 6.577C30.9119 1.16379 23.0978 1.16379 20.0188 6.577L1.08923 39.3453C-2.00086 44.7585 1.84508 51.4834 8.08084 51.4834H45.8622C52.098 51.4834 56.0106 44.6918 52.9205 39.3453ZM26.9993 44.2139C25.3542 44.2139 23.987 42.8467 23.987 41.2016C23.987 39.5565 25.3542 38.1893 26.9993 38.1893C28.6444 38.1893 30.0116 39.5565 29.9449 41.2794C30.0227 42.8467 28.5777 44.2139 26.9993 44.2139ZM29.7448 24.7396C29.6114 27.0739 29.4669 29.397 29.3335 31.7312C29.2669 32.4871 29.2669 33.1762 29.2669 33.921C29.2002 35.1548 28.2331 36.1107 26.9993 36.1107C25.7655 36.1107 24.8096 35.2215 24.7318 33.9877C24.5317 30.3529 24.3205 26.7849 24.1204 23.1501C24.0537 22.1942 23.987 21.2271 23.9092 20.2712C23.9092 18.6928 24.7985 17.3923 26.2435 16.981C27.6885 16.6365 29.1224 17.3256 29.7448 18.6928C29.956 19.1708 30.0227 19.6488 30.0227 20.2045C29.956 21.7273 29.8115 23.239 29.7448 24.7396Z" fill="#0F2A43"/>
</g>
<defs>
<clipPath id="clip0_229_137">
<rect width="54" height="54" fill="white"/>
</clipPath>
</defs>
</svg>
